# xmcd
#
# Track frame offsets:
# 150
# 17493
# 30282
# 45662
# 67721
# 86406
# 103439
# 119138
# 128227
# 139380
# 155014
#
# Disc length: 2239 seconds
#
# Revision: 0
# Processed by: cddbd v1.5.1PL0 Copyright (c) Steve Scherf et al.
# Submitted via: Audion 3.0.2 (http://www.panic.com/audion/)
#
DISCID=9208bd0b
DTITLE=Mor Fey - Spam
DYEAR=1900
DGENRE=
TTITLE0=Ne Pey Etot Yad (e-mail)
TTITLE1=Pered Boem
TTITLE2=Tam, Gde Budet Tepley
TTITLE3=Gorod Angelov
TTITLE4=Mnogo (Malo)
TTITLE5=Perevernutiy Mir
TTITLE6=Skazhi Mne
TTITLE7=Pochtalyon
TTITLE8=Spam
TTITLE9=Zhit' Ne Lyubya
TTITLE10=Prosti Za Lyubov
EXTD=
EXTT0=
EXTT1=
EXTT2=
EXTT3=
EXTT4=
EXTT5=
EXTT6=
EXTT7=
EXTT8=
EXTT9=
EXTT10=
PLAYORDER=
